:SAMPLES-PER-SECOND 30
:FULLY-SPECIFIED
:DEGREES
443
root  -72.4766 41.0036 1.61241 -165.33 -82.5422 163.911
RightUpLeg  -3.36703 -7.29888 -3.62649
RightLeg  7.53957 13.0941 0.499234
RightFoot  -1.76372 -0.0553925 0.519353
RightToes  3.49245e-010 0 -3.6325e-017
Spine  1.14926 0.698459 6.98848
Spine1  7.20078 2.0408 -5.25124
HEad  -16.9808 -7.45564 0.978378
LeftShoulder1  -0.21811 4.04866 -33.8896
LeftArm  7.10869 0.762886 -41.0677
LeftForeArm  23.1465 -16.2278 -7.00941
LeftHand  0.00105974 8.2095 1.63502
RightShoulder  -0.599075 -5.2599 27.3765
RightArm  20.8677 9.82647 51.9681
RightForeArm  17.2579 10.806 8.32212
RightHand  -0.123547 4.77085 -1.69669
LeftUpLeg  -3.51538 1.71909 -0.547088
LeftLeg  5.31575 -12.167 1.1778
LeftFoot  -0.810638 -0.106387 1.2073
LeftToes  -5.6298e-010 8.41567e-011 -1.83319e-011
444
root  -72.5749 41.0368 1.85378 -168.367 -80.4118 167.273
RightUpLeg  -3.66792 -6.93959 -3.72519
RightLeg  6.95015 14.9293 0.205713
RightFoot  -1.4447 -0.0870349 0.888044
RightToes  3.49245e-010 0 -3.6325e-017
Spine  1.19216 0.632896 5.48982
Spine1  7.28704 1.68982 -4.14168
HEad  -17.6973 -8.79228 1.36919
LeftShoulder1  -0.250752 4.12684 -34.106
LeftArm  5.34155 -2.28295 -41.7395
LeftForeArm  24.496 -15.4205 -7.27196
LeftHand  -0.00683914 8.69558 1.41698
RightShoulder  -0.585609 -5.21766 27.4147
RightArm  21.3247 8.0729 51.3689
RightForeArm  18.5484 10.0112 8.72381
RightHand  -0.0578754 4.06442 -0.993198
LeftUpLeg  -3.21425 2.6795 -0.634309
LeftLeg  4.7021 -10.7735 0.972255
LeftFoot  -0.722816 -0.146719 1.62677
LeftToes  -5.6298e-010 8.41567e-011 -1.83319e-011
445
root  -72.6369 41.0527 2.13038 -171.666 -77.6836 171.024
RightUpLeg  -4.2638 -6.20506 -3.50971
RightLeg  6.2935 16.9906 -0.23325
RightFoot  -1.04743 -0.157635 1.67161
RightToes  3.49245e-010 0 -3.6325e-017
Spine  1.88267 0.311746 4.02771
Spine1  6.59867 1.13435 -3.34802
HEad  -18.3651 -8.09999 1.76632
LeftShoulder1  -0.352414 4.39238 -33.5292
LeftArm  3.76629 -3.99795 -42.5226
LeftForeArm  24.7289 -15.412 -7.03095
LeftHand  0.0105317 7.89383 2.31378
RightShoulder  -0.697048 -5.48821 28.4245
RightArm  22.6295 7.49025 50.3361
RightForeArm  19.3095 8.98528 9.46709
RightHand  -0.13885 3.94127 -2.00148
LeftUpLeg  -3.32742 3.40472 -0.541209
LeftLeg  4.66215 -8.66091 0.677565
LeftFoot  -0.742114 -0.200632 2.2108
LeftToes  -5.6298e-010 8.41567e-011 -1.83319e-011
446
root  -72.6441 41.0469 2.414 -172.622 -74.4467 172.641
RightUpLeg  -5.60322 -5.3698 -3.43788
RightLeg  6.28182 19.3628 -0.568159
RightFoot  -0.898762 -0.226795 2.41267
RightToes  3.49245e-010 0 -3.6325e-017
Spine  2.2494 -0.00327792 2.74688
Spine1  6.24917 0.773555 -3.27987
HEad  -18.8158 -7.43478 2.44056
LeftShoulder1  -0.372 4.4722 -32.2668
LeftArm  3.50622 -5.35466 -43.0681
LeftForeArm  24.1305 -16.3987 -6.38601
LeftHand  -0.00974869 7.68464 1.62164
RightShoulder  -0.827994 -5.79421 29.5492
RightArm  22.4123 7.24253 49.5044
RightForeArm  20.8086 8.03783 9.77098
RightHand  -0.0852826 4.25891 -1.27514
LeftUpLeg  -3.68954 3.91758 -0.647242
LeftLeg  4.46171 -5.95848 0.307563
LeftFoot  -0.716853 -0.225618 2.47279
LeftToes  -5.6298e-010 8.41567e-011 -1.83319e-011
447
root  -72.6421 41.022 2.70873 -173.513 -70.8395 173.967
RightUpLeg  -6.73385 -4.42507 -3.36652
RightLeg  6.19816 22.0762 -0.844366
RightFoot  -0.854858 -0.306438 3.27584
RightToes  3.49245e-010 0 -3.6325e-017
Spine  3.10748 -0.213199 0.453182
Spine1  5.45599 0.111675 -1.50026
HEad  -18.8247 -6.70609 2.51621
LeftShoulder1  -0.382407 4.49596 -32.4169
LeftArm  4.53972 -6.23967 -42.2799
LeftForeArm  21.4056 -17.1111 -6.16284
LeftHand  -0.0111151 6.55878 2.28728
RightShoulder  -0.833009 -5.81244 29.4647
RightArm  21.0751 6.41207 48.9313
RightForeArm  22.784 7.60026 9.51787
RightHand  -0.00584505 3.22595 -0.329262
LeftUpLeg  -4.00531 4.51034 -0.65656
LeftLeg  4.68168 -2.83795 -0.127328
LeftFoot  -1.02984 -0.230942 2.63051
LeftToes  -5.6298e-010 8.41567e-011 -1.83319e-011
